<svg xmlns="http://www.w3.org/2000/svg" width="37.229" height="37.212" viewBox="0 0 37.229 37.212"><defs><style>.a{fill:#26093a;}</style></defs><g transform="translate(0 -0.011)"><g transform="translate(0 0.012)"><path class="a" d="M35.522,42.718H1.692a1.692,1.692,0,1,0,0,3.384H35.521a1.692,1.692,0,0,0,0-3.384Z" transform="translate(0 -8.89)"/><path class="a" d="M4.361,32.726a1.692,1.692,0,0,0,0,3.385h29.6a1.692,1.692,0,0,0,0-3.385H33.54V17.5h.422a.845.845,0,1,0,0-1.69H4.361a.845.845,0,1,0,0,1.69h.423V32.725H4.361ZM30.156,17.5V32.725H25.081V17.5Zm-8.458,0V32.725H16.623V17.5Zm-13.531,0H13.24V32.725H8.166Z" transform="translate(-0.555 -3.296)"/><path class="a" d="M1.692,11.005H35.538a1.692,1.692,0,0,0,.549-3.293L19.3.16a1.7,1.7,0,0,0-1.388,0L1,7.771a1.691,1.691,0,0,0,.694,3.234Z" transform="translate(0 -0.012)"/></g></g></svg>