<svg xmlns="http://www.w3.org/2000/svg" width="39" height="39.548" viewBox="0 0 39 39.548"><defs><style>.a{fill:#26093a;}</style></defs><g transform="translate(-3.548)"><path class="a" d="M188.532,19.567a9.783,9.783,0,1,0-9.783-9.783A9.794,9.794,0,0,0,188.532,19.567ZM187.374,4.033V3.767a1.159,1.159,0,1,1,2.317,0v.267a3.064,3.064,0,0,1,2.416,2.99,1.159,1.159,0,0,1-2.317,0,.743.743,0,0,0-.742-.742H188.01a.741.741,0,0,0-.441,1.337l.964.714,2.342,1.733a3.071,3.071,0,0,1,1.239,2.438v.011a3.061,3.061,0,0,1-2.422,3.013V15.8a1.159,1.159,0,1,1-2.317,0v-.267a3.059,3.059,0,0,1-2.415-2.971A1.158,1.158,0,0,1,186.11,11.4h.008a1.159,1.159,0,0,1,1.159,1.152.74.74,0,0,0,.745.737l1.037-.006a.741.741,0,0,0,.737-.747V12.52a.744.744,0,0,0-.3-.591l-.963-.713L186.19,9.483a3.059,3.059,0,0,1,1.184-5.45Z" transform="translate(-161.668)"/><path class="a" d="M11.013,318.941a1.08,1.08,0,0,0-1.475-.4l-5.45,3.146a1.081,1.081,0,0,0-.4,1.475l5.57,9.648a1.08,1.08,0,0,0,1.475.4l5.45-3.147a1.079,1.079,0,0,0,.4-1.475Z" transform="translate(0 -293.807)"/><path class="a" d="M164.709,274.152a1.623,1.623,0,0,0-2.267-.368l-6.783,4.888a4.107,4.107,0,0,1-.488.358,4.2,4.2,0,0,1-2.247.643h-5.55a1.159,1.159,0,0,1,0-2.317h5.935a1.536,1.536,0,0,0,1.534-1.6,1.56,1.56,0,0,0-1.571-1.471h-4.518a7.515,7.515,0,0,0-1-.885,7.411,7.411,0,0,0-4.414-1.449,8.175,8.175,0,0,0-7.072,4.321l4.74,8.208H149.9a9.978,9.978,0,0,0,4.978-1.317,19.914,19.914,0,0,0,1.695-1.1c2.551-1.832,7.765-5.639,7.769-5.641A1.624,1.624,0,0,0,164.709,274.152Z" transform="translate(-122.468 -250.944)"/></g></svg>